<svg xmlns="http://www.w3.org/2000/svg" viewBox="0 0 24 24" fill="none" stroke="#0f172a" stroke-width="1.8" stroke-linecap="round" stroke-linejoin="round" aria-hidden="true">
  <!-- bulb outline -->
  <path d="M12 3a7 7 0 0 0-5 11c.9 1.1 1.5 1.9 1.7 3 .1.7.7 1 1.3 1h3c.6 0 1.2-.3 1.3-1 .2-1.1.8-1.9 1.7-3A7 7 0 0 0 12 3z"/>
  <!-- bulb base -->
  <path d="M9.5 19.5h5M10 22h4"/>
  <!-- leaf inside -->
  <path d="M12 8c2.8 0 4.8 1 4.8 1s-1.3 5.2-5.3 5.2c-1.1 0-1.9-.3-2.5-.8 0-3.2 1.4-5.4 3-5.4z" fill="#0f172a" stroke="none"/>
  <!-- rays -->
  <path d="M16.8 5.2l.9-1.5M18.9 7.4l1.6-.6M7.2 5.2l-.9-1.5"/>
</svg>
